<?xml version="1.0" encoding="utf-8"?>
<!-- Generator: Adobe Illustrator 27.6.1, SVG Export Plug-In . SVG Version: 6.00 Build 0)  -->
<svg version="1.1" id="Layer_1" xmlns="http://www.w3.org/2000/svg" xmlns:xlink="http://www.w3.org/1999/xlink" x="0px" y="0px"
	 viewBox="0 0 1231.2 376.9" style="enable-background:new 0 0 1231.2 376.9;" xml:space="preserve">
<style type="text/css">
	.st0{stroke:#000000;stroke-width:5;stroke-miterlimit:10;}
</style>
<g>
	<path class="st0" d="M4242.9,363.1c11.5-23.4,13.1-56.4,18-81.8c5.4-27.9,10.4-55.9,11.2-84.3c0.3-12.1-11.4-67.6-1.1-73.8
		c22.3-13.5,15.5,44.7,14.8,53.5c-5.3,60.8-5.5,125.1-25.3,183.5c-6.3,18.4-12,57.2-32.9,40.3c-14.4-11.6-30.2-43.1-40.6-59.2
		c-26.3-41-41.5-94.6-71.1-132.4c-18.6-23.8-26.5,9.7-32.4,28.4c-7.9,24.7-10.7,50.8-14.5,76.3c-1.8,12-1.5,67.7-10.5,73
		c-14.1,8.4-10-51.6-9.5-58.5c1.8-28.6,11-57.6,19-85c7.1-24.4,14.7-62.8,33.1-81.2c20.9-21,22,17.4,28.9,35
		c11,28.2,28,53.9,43,80.4c13.6,24,27.6,49,40.8,73.2c1.9,3.5,4,7,6.4,10.3C4229.9,374.8,4233.9,384.6,4242.9,363.1z"/>
	<path class="st0" d="M4833.5,206.8c1.5-6,2.1-12.1,1.8-18.3c-1.1-21.2-3-62.4,9.1-54.5c14.2,9.4,0.2,98.5-0.2,114.1
		c-1.1,36.2-0.6,71.8,1.5,108c0.9,15.2,3.8,29.4-11.9,32.9c-4.5,1-11.4-3.6-16.4-3.8c-8.3-0.3-16.1,3.8-24.5,3.6
		c-59.3-1.3-90.6-61-75.9-112.8c8.6-30.2,25.8-52.3,56.7-62.7c16.8-5.6,29.8-2.5,45.2-0.4C4831.8,214.6,4831.7,213.9,4833.5,206.8z
		 M4828.3,248.2c1.3-4.4,1.2-9.1-0.8-13.2c-11.3-23-57.9-6.5-71.8,7.3c-20.5,20.3-25.5,62.5-15.6,89.4c13.7,33.9,61.5,53.3,86.3,27
		c4.5-8.9-0.6-29.5-1.7-48.5C4823.8,292.3,4822.8,266.2,4828.3,248.2z"/>
	<path class="st0" d="M4641.8,173.9c1.1-11,3.8-40.8,12.8-47.8c9.9-7.5,10.9,3.4,10.9,9.9c0,1.3,0,2.5,0.1,3.8
		c0.4,9.6-6.6,26.1-8.6,35.7c-3.8,18-6.2,35.7-6.8,54.2c-0.6,17.6-6.3,31.5-8.9,48.4c-3.2,20.8,0.3,43.5-0.6,64.7
		c-0.3,6,1.5,28-4.6,33.3c-6.5,5.7-12.4-3.5-19.5-3.4c-9.4,0.2-15.3,4.3-24.7,6c-32.7,6-65.2,1.2-91.1-23.2
		c-26.3-24.9-18.3-76.7,1.7-103.1c23.3-30.9,54.7-41.4,91.9-41.8c7.8-0.1,31.6,4.9,37.4,1.5C4639.9,207.2,4642.9,181.2,4641.8,173.9
		z M4566.8,361c3.3,0.4,23-1,26.3-1.6c35.2-6.5,30.4-60.6,35.1-88.1c3.3-19.3,10.4-41.5-11.3-48.1c-15.8-4.8-42.6,1.1-57.8,6.4
		c-38,13.3-63.2,38.3-57.5,81.5C4507.4,356,4544.7,358.5,4566.8,361z"/>
	<path class="st0" d="M4416.7,396.7c-34.8-2.7-70.9-1.9-89.5-36c-13.8-25.4-12.6-53.4,6.8-75.5c20.2-23,51-28.3,79.7-30.7
		c16.5-1.4,20.1,3.3,19.7-14.9c-0.4-18.1-16.6-28.4-32.5-32.1c-15.9-3.7-27.2,0.7-41.6,6.6c-7.8,3.2-22.5,14.9-14.3-4
		c12.4-28.6,67.4-26,84.2-7c24.5,27.7,17,70.2,15.2,103.8C4443.4,329.3,4446,390,4416.7,396.7z M4433.5,284.4
		c0.3-1.6-0.2-3.3-1.3-4.5c-19.1-21-63.1-6.4-83.1,8c-20.6,14.9-18.7,35-11.7,57.3c5.3,16.8,13.8,22.4,31.3,28.2
		c5.7,1.9,35.5,10.4,42.3,5.8C4426.2,369.2,4429.9,305.9,4433.5,284.4z"/>
	<path class="st0" d="M5133.9,207.7c-14.2-8.4-36.6-11.9-51.6-3.6c-26,14.3-12.8,37.4,1.5,54.7c21.7,26.2,69.2,73.8,49.6,114.8
		c-10.5,20.3-72.5,41.3-99.4,18.3c-9.3-7.9-24.1-24.7-26.5-36.8c-3.2-15.7-2.7-30.9,13.9-16.4c8.8,16.9,6.5,29.4,23,39.5
		c13.6,8.3,46.2,8.3,59.4-1.2c38.2-27.5-5.9-71-24-94.5c-17.1-22.2-43.3-59-12.9-84.4c14.9-12.5,51.9-13.7,69-5.3
		C5164.1,206.7,5135,212.5,5133.9,207.7L5133.9,207.7z"/>
	<path class="st0" d="M4929.2,254.3c1.8,39.9,3.5,79.8,5.3,119.7c0.4,8.4,4.8,42.1-14.7,33.5c-10.6-2.3-7.2-28.1-6.2-42.5
		c1-46.5-1.3-70.2-2.1-109.5c0.6-6.2-2.6-33.9,4.4-37C4927.7,213.1,4927.8,247.9,4929.2,254.3L4929.2,254.3z"/>
	<path class="st0" d="M4905.7,172c-0.8-9.6-2.1-20.9,5.9-27.7c8.8-7.5,21.3-5.1,25.5,4.9C4946.9,172.4,4905.6,189.7,4905.7,172z"/>
	<path class="st0" d="M5028.6,134.7c-1.2,4.5-10.3,44.8-18.8,29.3c-3.4-6.2,4.6-10.4,3.1-14.6c2.1-2.6,2.2-4.8,0.1-6.6
		c-1.9-3.4-5.3-4.4-10.1-2.9c-4.8-6.7-15.4-13.3-4.5-24.7C5012.2,100.9,5027.6,120.9,5028.6,134.7z"/>
</g>
<g>
	<path d="M303.4,25.9c-3.6-2.3-8-1.9-12.9,1.1c-8.7,5.2-6.2,29.8-2.2,61.4c1.2,9.1,2.2,17,2.1,20.6c-0.9,30.1-6.2,60.1-12.1,90.7
		c-1.5,7.7-2.7,15.9-3.9,24.6c-3.2,22.2-6.5,45.2-15.3,63.1l-0.1,0.1c-4.4,10.5-6.8,11.8-7.7,11.9c-2,0.2-5.9-5.5-9.3-10.5
		c-1-1.4-2-3-3.1-4.5c-2.4-3.4-4.6-7-6.7-10.8c-12.4-22.7-26.8-48.5-44.1-79.1c-4.1-7.2-8.3-14.4-12.5-21.4
		c-12.3-20.9-25-42.5-33.9-65.1c-1.7-4.4-3.1-10.1-4.5-16.1c-3.4-14.1-6.7-27.4-15.2-29.8c-4.7-1.3-9.9,1-15.9,7.1
		c-17,17.1-25.6,49.1-32.5,74.7c-1.4,5.1-2.6,9.9-3.9,14.2c-0.9,3.1-1.8,6.2-2.7,9.3c-8,27.1-16.2,55.2-17.9,83.2l0,0.7
		c-2.5,39-0.1,61,7,65.4c1.6,1,4.1,1.7,7.5-0.3c7.8-4.6,9.7-30,11.4-62.7c0.4-8,0.8-14.9,1.3-18.2c0.7-4.4,1.3-8.9,1.9-13.4
		c3.2-22.8,6.6-46.4,13.6-68.6c0.5-1.7,1.1-3.5,1.7-5.4c3.8-12.3,9.4-30.9,17-32.3c4-0.8,8.6,3.8,11.7,7.8
		c17.7,22.7,30.9,51.2,43.6,78.9c10.1,21.8,20.5,44.4,33.1,64c2.9,4.5,6.2,10.1,9.7,16c10.2,17.4,22.9,39,34.8,48.6
		c4.2,3.4,8.2,5.1,12,5.1c1.3,0,2.5-0.2,3.7-0.6c11-3.5,16.1-21.8,20.7-37.9c1.2-4.2,2.3-8.1,3.4-11.4
		c17-50.1,20.7-104.4,24.3-156.9c1-13.9,1.9-28.2,3.2-42.1c0-0.5,0.1-1.2,0.2-2C314.1,50.1,311.8,31.2,303.4,25.9z"/>
	<path d="M871.4,158.1c6.7-54.9,8.6-90.2-3.1-97c-3.5-2.1-6.2-1.5-7.9-0.6c-8.2,4.2-8.6,25.9-6.7,57.4c0.3,5.9-0.3,11.8-1.9,17.6
		l-0.1,0.4c-0.8,2.9-1.2,4-1.9,4.3c-1.6,0.6-6.1,0.1-11.5-0.5c-2.4-0.3-4.7-0.6-7-0.9c-14.5-1.9-28.3-3.6-45.2,1.4
		c-33.6,10-55.1,31.1-65.8,64.4c-9.2,28.8-3.1,59.8,16.2,83.1c17.2,20.6,42.8,32.3,72,32.9c5.1,0.1,9.8-0.9,14.5-1.9
		c4.5-1,8.8-1.9,13.1-1.7c2.1,0.1,4.8,1,7.5,1.8c3.2,1,6.6,2.1,9.6,2.1c0.7,0,1.4-0.1,2.1-0.2c18.2-3.5,17-17.4,15.9-30.7
		c-0.1-1.6-0.3-3.2-0.4-4.8c-2.4-36.4-2.9-71.6-1.7-107.8C869.4,174,870.3,166.9,871.4,158.1z M843.9,239.3
		c0.4,6.2,1.2,12.5,2.1,18.5c1.6,11.8,3.1,23,0.3,28.5c-10.2,9.4-28.8,13.1-45.1,10.4c-22.4-3.7-43-18.5-51.2-36.7
		c-10.4-24.9-6-66.6,16.9-86.7c9.1-8,33.3-18.1,53.1-18.1c2.5,0,6.9,0.2,9.3,0.5c7.8,1.2,15.3,4.4,18.1,9.5
		c1.9,3.4,2.1,7.4,0.8,11.4C842,194,842.5,218.1,843.9,239.3z"/>
	<path d="M690.4,65.1c0-5.1-0.5-12.1-5-14.3c-2.7-1.3-6-0.5-9.9,2.5c-4.7,3.6-10,12-13.6,47.6l-0.2,2.2l0,0.3
		c1.1,7.6-2.2,31.7-9,35.6c-3.2,1.8-15.7,0.3-23.9-0.7c-5.1-0.6-9.5-1.1-12.2-1.1c-42.3,0.4-72.1,14-93.8,42.8
		c-10.5,13.9-17.5,33.9-18.7,53.5c-1.4,22.3,4.8,41.1,17.3,52.9c18.5,17.5,41.3,26.3,68,26.3c8,0,16.5-0.8,25.2-2.4
		c4.1-0.7,7.5-1.9,10.7-3c4.4-1.5,8.5-2.9,13.6-3c2.2-0.1,4.4,1.2,6.8,2.5c4,2.2,9.1,4.9,14.3,0.4c5.4-4.7,5.7-17.5,5.5-30.2
		c0-2,0-3.8,0-4.9c0.4-8.5,0-17.5-0.3-26.1c-0.5-12.8-1-26.1,0.9-38.3c1-6.5,2.5-12.6,3.9-18.5c2.3-9.4,4.6-19.2,5-30.2
		c0.6-17.6,2.8-35.2,6.8-53.8c0.7-3.2,2-7.3,3.3-11.7c2.6-8.4,5.6-17.9,5.3-24.6C690.5,67.6,690.4,66.4,690.4,65.1z M649.3,193.3
		c-0.4,2.2-0.8,4.5-1.2,6.7c-1,5.9-1.6,12.9-2.2,20.3c-2.2,27.2-4.9,61-30.9,65.7c-3.4,0.6-22.6,1.9-25.5,1.5l-2.5-0.3
		c-21.9-2.4-55.1-6.1-60.5-47.4c-5-37.5,13.8-64,55.8-78.8c17.3-6.1,42.3-10.7,56.3-6.4C654.4,159.5,653.1,173.1,649.3,193.3z"/>
	<path d="M398.6,116.1c-16.5,2.6-28.3,10.4-33.3,22c-3.1,7.1-3.4,10.8-1.2,12.9c3,2.7,7.9,0.1,13.5-3c1.9-1,3.7-2,5.2-2.6
		c15.2-6.3,25.3-9.9,40.1-6.5c22.2,5.2,30.3,18.8,30.5,29.7c0.1,4.6,0,9.6-1.4,11c-0.9,1-3.5,1-7.1,1c-2.4,0-5.4,0-8.9,0.4
		c-30.2,2.6-60.9,8.2-81.4,31.6c-19.5,22.2-22.1,50.8-7.1,78.4c17.5,32.2,50.2,34.4,81.9,36.6c3.2,0.2,6.4,0.4,9.6,0.7l0.4,0
		l0.4-0.1c27.5-6.3,28.7-53.8,29.5-82.2c0.1-3.9,0.2-7.2,0.3-10c0.2-4.8,0.6-9.7,1-14.8c2.3-31.1,4.9-66.3-16.8-90.8
		C443.4,118.9,419.8,112.8,398.6,116.1z M432.1,306.4c-4.7,3.2-28.7-2.3-40.2-6.1c-16.8-5.6-24.7-10.5-29.7-26.6
		c-7.2-22.9-8.1-40.9,10.8-54.5c12.2-8.8,34.5-18,53.6-18c10.4,0,19.8,2.7,26.1,9.7c0.6,0.6,0.8,1.5,0.7,2.4
		c-0.8,4.7-1.5,11.2-2.4,18.8C448,257,443.1,299,432.1,306.4z"/>
	<path d="M1159.3,119.6c-17.9-8.8-55.8-7.6-71.7,5.7c-14.1,11.8-18.2,27.3-12.1,46.1c4.8,14.7,14.7,28.8,24.7,41.8
		c2.2,2.9,4.9,6.1,7.7,9.5c14.1,17.2,33.3,40.6,30.7,60.5c-1.1,8.1-5.6,15-13.8,20.9c-12.1,8.7-43.3,9.3-56.6,1.1
		c-10.3-6.3-12.7-13.6-15.8-22.8c-1.6-4.7-3.3-9.9-6.3-15.7l-0.2-0.4l-0.4-0.3c-6.8-5.9-11.8-7.7-15.5-5.6
		c-4.5,2.6-5.4,10.6-2.6,24.4c2.7,13.1,18.2,30.3,27.4,38.2c5.2,4.4,15.7,10.6,34,10.6c5.6,0,11.9-0.6,19.1-2
		c23.1-4.5,44.2-16.2,50.2-27.8c18.2-38-18.1-80.3-42.1-108.2c-2.8-3.3-5.5-6.4-7.8-9.2c-12.1-14.7-17.2-26.2-15.4-35.3
		c1.2-6.2,5.5-11.3,13.2-15.5c14.3-7.8,35.4-4.2,48.5,3.2c0.7,1.1,2.4,2.4,6,2.4c4.2,0.1,11.3-1.8,12.4-6.8
		C1174,129.4,1169.6,124.6,1159.3,119.6z"/>
	<path d="M959.4,302.9c-1.2-28.5-2.5-57-3.8-85.5l-1.5-34.2l-0.1-0.4c-0.2-1.1-0.5-3.7-0.8-6.6c-1.3-14.2-3.1-27.2-9.2-30.9
		c-1.4-0.8-3.8-1.5-6.8-0.2c-6.2,2.8-6.4,15.9-5.9,31.4c0.1,3.4,0.2,6.3,0.1,7.7l0,0.1v0.1c0.3,13.3,0.7,24.8,1.1,36
		c0.8,21.9,1.6,42.6,1,73.3c-0.1,1.6-0.2,3.4-0.4,5.2c-1.3,16.5-2.9,37.1,8.3,39.8c2.3,1,4.5,1.5,6.5,1.5c2.1,0,4-0.6,5.6-1.7
		c8-5.6,6.7-23.2,6.1-32.7C959.6,304.8,959.5,303.7,959.4,302.9z"/>
	<path d="M949.8,67c-6-1.4-12.3,0.2-17.3,4.5c-8.5,7.3-7.6,19-6.8,28.4l0.1,1.3c0,4.2,2,7.3,5.5,8.8c1.4,0.6,3.1,0.9,4.9,0.9
		c6.4,0,14.5-3.6,20.2-9.3c7.1-7.1,9.1-15.9,5.6-24.2C959.7,72.1,955.3,68.3,949.8,67z"/>
	<path d="M1033.9,77.8c-0.1,0.5-0.1,0.8-0.1,0.8c-0.4,1-1.5,2.8-2.3,4.1c-1.7,2.7-4.2,6.7-1.5,11.5c1.8,3.2,3.9,4.8,6.2,4.8
		c0.2,0,0.5,0,0.7,0c5.7-0.7,10.5-10.7,16.2-33.3c0.2-0.6,0.3-1,0.3-1.3l0.1-0.4l0-0.4c-0.6-9.7-7.8-22.4-17.4-25.9
		c-4.2-1.5-10.6-1.9-17,4.8c-10.5,10.9-5.5,18.3-0.8,23.7c1.1,1.2,4.7,5.3,7.8,5.2l0,0c0.1,0,0.1,0,0.1,0
		C1030.3,70.2,1034.3,73.6,1033.9,77.8z"/>
</g>
<g>
	<path d="M4318.5,730.5c-3.3-2.1-7.4-1.8-12,1c-8,4.8-5.8,27.6-2,56.8c1.1,8.4,2,15.7,1.9,19.1c-0.8,27.9-5.8,55.6-11.2,83.9
		c-1.4,7.1-2.5,14.7-3.6,22.8c-3,20.6-6,41.8-14.1,58.4l-0.1,0.1c-4.1,9.7-6.3,10.9-7.1,11c-1.9,0.2-5.4-5.1-8.6-9.7
		c-0.9-1.3-1.9-2.7-2.9-4.2c-2.2-3.1-4.3-6.5-6.2-10c-11.4-21-24.8-44.9-40.8-73.2c-3.8-6.6-7.7-13.3-11.5-19.8
		c-11.4-19.3-23.1-39.3-31.3-60.2c-1.6-4.1-2.9-9.3-4.2-14.9c-3.2-13-6.2-25.4-14-27.6c-4.3-1.2-9.2,0.9-14.7,6.5
		c-15.8,15.8-23.7,45.4-30.1,69.2c-1.3,4.7-2.5,9.1-3.6,13.2c-0.8,2.8-1.7,5.7-2.5,8.6c-7.4,25.1-15,51.1-16.6,76.9l0,0.7
		c-2.3,36.1-0.1,56.4,6.4,60.5c1.4,0.9,3.8,1.6,6.9-0.3c7.2-4.3,9-27.8,10.5-58c0.4-7.4,0.7-13.8,1.2-16.8c0.6-4.1,1.2-8.2,1.8-12.4
		c3-21.1,6.1-43,12.6-63.5c0.5-1.6,1-3.2,1.5-4.9c3.5-11.4,8.7-28.6,15.8-29.9c3.7-0.7,7.9,3.5,10.8,7.2c16.4,21,28.6,47.4,40.3,73
		c9.3,20.2,18.9,41.1,30.6,59.2c2.6,4.1,5.7,9.3,8.9,14.8c9.4,16.1,21.2,36.1,32.2,45c3.9,3.1,7.6,4.7,11.1,4.7
		c1.2,0,2.3-0.2,3.4-0.5c10.2-3.2,14.9-20.1,19.1-35.1c1.1-3.9,2.1-7.5,3.1-10.6c15.7-46.3,19.2-96.6,22.5-145.2
		c0.9-12.8,1.8-26.1,2.9-38.9c0-0.5,0.1-1.1,0.2-1.9C4328.4,752.9,4326.2,735.4,4318.5,730.5z"/>
	<path d="M4885.3,839.4c6-54.9,7.6-90.2-2.7-97c-3.1-2.1-5.5-1.5-7-0.7c-7.2,4.2-7.6,25.9-5.9,57.3c0.3,5.9-0.3,11.8-1.7,17.6
		l-0.1,0.4c-0.7,2.9-1,4-1.7,4.3c-1.4,0.6-5.4,0.1-10.2-0.5c-2.1-0.3-4.1-0.6-6.2-0.9c-12.9-1.9-25.1-3.7-40.1,1.4
		c-29.8,10-48.9,31.1-58.3,64.4c-8.2,28.8-2.8,59.8,14.4,83.1c15.2,20.6,37.9,32.3,63.9,32.9c4.5,0.1,8.7-0.9,12.8-1.9
		c4-1,7.8-1.9,11.6-1.7c1.8,0.1,4.3,1,6.6,1.8c2.9,1.1,5.8,2.1,8.5,2.1c0.6,0,1.3-0.1,1.9-0.2c16.1-3.6,15.1-17.4,14.1-30.7
		c-0.1-1.6-0.2-3.2-0.3-4.8c-2.1-36.4-2.6-71.6-1.5-107.8C4883.6,855.3,4884.4,848.3,4885.3,839.4z M4859.2,920.7
		c0.3,6.2,1.1,12.4,1.8,18.5c1.4,11.8,2.8,23,0.2,28.5c-9,9.4-22,13.1-36.5,10.4c-19.8-3.7-38.1-18.5-45.4-36.7
		c-9.2-24.9-5.4-66.6,15-86.7c8.1-8,29.5-18.1,47.1-18.1c2.2,0,4.4,0.2,6.5,0.5c6.9,1.2,11.8,4.4,14.3,9.6c1.6,3.3,1.9,7.4,0.7,11.4
		C4857.5,875.4,4858,899.4,4859.2,920.7z"/>
	<path d="M4704.9,746.5c0-5.1-0.5-12.1-5-14.3c-2.7-1.3-6-0.5-9.9,2.5c-4.7,3.6-10,12.1-13.6,47.6l-0.2,2.2l0,0.3
		c1.1,7.6-2.2,31.7-9,35.6c-3.2,1.8-15.6,0.3-23.9-0.7c-5.1-0.6-9.5-1.1-12.2-1.1c-42.3,0.4-72.1,14-93.8,42.8
		c-10.5,13.9-17.5,33.9-18.7,53.5c-1.4,22.3,4.8,41.1,17.3,52.9c18.5,17.5,41.3,26.3,68,26.3c8,0,16.5-0.8,25.2-2.4
		c4.1-0.7,7.5-1.9,10.7-3c4.4-1.5,8.5-2.9,13.6-3c2.2-0.1,4.4,1.2,6.8,2.5c4,2.2,9.1,4.9,14.3,0.4c5.4-4.7,5.7-17.5,5.5-30.2
		c0-2,0-3.8,0-4.9c0.4-8.6,0-17.5-0.3-26.1c-0.5-12.8-1-26.1,0.9-38.3c1-6.5,2.5-12.6,3.9-18.5c2.3-9.4,4.6-19.2,5-30.2
		c0.6-17.6,2.9-35.2,6.8-53.8c0.7-3.2,2-7.3,3.3-11.7c2.6-8.4,5.6-17.9,5.3-24.6C4704.9,748.9,4704.9,747.7,4704.9,746.5z
		 M4663.8,874.6c-0.4,2.2-0.9,4.5-1.2,6.7c-1,5.9-1.6,12.9-2.2,20.3c-2.2,27.2-4.9,60.9-30.9,65.7c-3.4,0.6-22.6,1.9-25.5,1.5
		l-2.5-0.3c-21.9-2.4-55.1-6.1-60.5-47.4c-5-37.5,13.8-64,55.8-78.8c17.3-6.1,42.3-10.7,56.3-6.4
		C4668.9,840.9,4667.6,854.5,4663.8,874.6z"/>
	<path d="M4413,797.5c-16.5,2.6-28.3,10.4-33.3,22c-3.1,7.1-3.4,10.8-1.2,12.9c3,2.7,7.9,0.1,13.5-3c1.9-1,3.7-2,5.2-2.6
		c15.2-6.3,25.3-9.9,40.1-6.5c22.2,5.2,30.3,18.8,30.5,29.7c0.1,4.6,0,9.6-1.4,11c-0.9,0.9-3.5,1-7.1,1c-2.4,0-5.4,0.1-8.9,0.4
		c-30.2,2.6-60.9,8.2-81.4,31.6c-19.5,22.2-22.1,50.8-7.1,78.4c17.5,32.2,50.2,34.4,81.9,36.6c3.2,0.2,6.4,0.4,9.6,0.7l0.4,0
		l0.4-0.1c27.5-6.3,28.7-53.8,29.5-82.2c0.1-3.9,0.2-7.2,0.3-10c0.2-4.8,0.6-9.7,1-14.8c2.3-31.1,4.9-66.3-16.8-90.8
		C4457.9,800.3,4434.2,794.1,4413,797.5z M4446.5,987.7c-4.7,3.2-28.7-2.3-40.1-6.1c-16.8-5.6-24.7-10.5-29.7-26.6
		c-7.2-22.9-8.1-40.9,10.8-54.6c12.2-8.8,34.5-18.1,53.6-18.1c10.4,0,19.8,2.7,26.1,9.7c0.6,0.6,0.8,1.5,0.6,2.4
		c-0.8,4.7-1.5,11.2-2.4,18.8C4462.5,938.3,4457.5,980.4,4446.5,987.7z"/>
	<path d="M5173.8,801c-17.9-8.8-55.8-7.6-71.7,5.7c-14.1,11.8-18.2,27.3-12.1,46.1c4.8,14.7,14.7,28.8,24.6,41.8
		c2.2,2.9,4.9,6.1,7.6,9.5c14.1,17.2,33.3,40.6,30.7,60.6c-1.1,8.1-5.6,14.9-13.8,20.9c-12.1,8.7-43.3,9.3-56.6,1.1
		c-10.3-6.3-12.7-13.6-15.8-22.8c-1.5-4.7-3.3-9.9-6.3-15.7l-0.2-0.4l-0.4-0.3c-6.8-5.9-11.8-7.7-15.5-5.6
		c-4.5,2.6-5.4,10.6-2.6,24.4c2.7,13.1,18.2,30.3,27.4,38.2c5.2,4.4,15.7,10.6,34,10.6c5.6,0,11.9-0.6,19-2
		c23.1-4.5,44.2-16.2,50.2-27.8c18.2-38-18.1-80.3-42.1-108.2c-2.8-3.3-5.5-6.4-7.8-9.2c-12.1-14.7-17.2-26.2-15.4-35.3
		c1.2-6.2,5.5-11.3,13.2-15.6c14.3-7.8,35.5-4.2,48.5,3.2c0.7,1.1,2.4,2.4,6,2.4c4.2,0.1,11.3-1.8,12.5-6.8
		C5188.5,810.8,5184,806,5173.8,801z"/>
	<path d="M4973.9,984.3c-1.2-28.5-2.5-57-3.8-85.5l-1.5-34.2l-0.1-0.4c-0.2-1.2-0.5-3.7-0.8-6.6c-1.3-14.2-3-27.2-9.2-30.9
		c-1.4-0.8-3.8-1.5-6.8-0.2c-6.2,2.8-6.4,15.9-5.9,31.4c0.1,3.4,0.2,6.3,0.1,7.7l0,0.2v0.2c0.3,13.3,0.7,24.8,1.1,36
		c0.8,21.9,1.6,42.6,1,73.3c-0.1,1.6-0.2,3.4-0.4,5.2c-1.3,16.5-2.9,37.1,8.3,39.8c2.4,1,4.5,1.5,6.5,1.5c2.1,0,4-0.6,5.6-1.7
		c8-5.6,6.7-23.2,6-32.7C4974,986.1,4973.9,985.1,4973.9,984.3z"/>
	<path d="M4964.2,748.4c-6-1.4-12.3,0.2-17.4,4.5c-8.5,7.3-7.6,19-6.9,28.4l0.1,1.3c0,4.2,2,7.3,5.5,8.8c1.4,0.6,3.1,0.9,4.9,0.9
		c6.4,0,14.5-3.6,20.2-9.3c7.1-7.1,9.1-15.9,5.6-24.2C4974.1,753.4,4969.7,749.7,4964.2,748.4z"/>
	<path d="M5048.3,759.2c0,0.5-0.1,0.8-0.1,0.8c-0.4,1-1.5,2.8-2.3,4.1c-1.6,2.7-4.1,6.7-1.5,11.5c1.8,3.2,3.9,4.8,6.2,4.8
		c0.2,0,0.5,0,0.7-0.1c5.7-0.7,10.5-10.7,16.1-33.3c0.1-0.6,0.3-1,0.3-1.3l0.1-0.4l0-0.4c-0.6-9.7-7.8-22.4-17.4-25.9
		c-4.2-1.5-10.5-1.9-17,4.8c-10.5,10.9-5.5,18.3-0.8,23.7c1.1,1.2,4.7,5.3,7.8,5.2l0,0c0,0,0.1,0,0.1,0
		C5044.8,751.6,5048.7,755,5048.3,759.2z"/>
</g>
</svg>
